<mxfile host="app.diagrams.net" agent="Mozilla/5.0 (Windows NT 10.0; Win64; x64) AppleWebKit/537.36 (KHTML, like Gecko) Chrome/127.0.0.0 Safari/537.36" version="24.7.6">
  <diagram name="Seite-1" id="0qBJA2OcskKHXjRreBoT">
    <mxGraphModel dx="2266" dy="877" grid="1" gridSize="10" guides="1" tooltips="1" connect="1" arrows="1" fold="1" page="1" pageScale="1" pageWidth="827" pageHeight="1169" math="0" shadow="0">
      <root>
        <mxCell id="0" />
        <mxCell id="1" parent="0" />
        <mxCell id="yLwDr2I2qwveIQNhpc3Y-11" value="Stage 1" style="swimlane;whiteSpace=wrap;html=1;startSize=23;" parent="1" vertex="1">
          <mxGeometry x="320" y="1030" width="210" height="260" as="geometry" />
        </mxCell>
        <mxCell id="yLwDr2I2qwveIQNhpc3Y-13" value="&lt;b&gt;Local Merge&lt;/b&gt;" style="rounded=1;whiteSpace=wrap;html=1;" parent="yLwDr2I2qwveIQNhpc3Y-11" vertex="1">
          <mxGeometry x="35" y="55" width="120" height="60" as="geometry" />
        </mxCell>
        <mxCell id="yLwDr2I2qwveIQNhpc3Y-26" style="edgeStyle=orthogonalEdgeStyle;rounded=0;orthogonalLoop=1;jettySize=auto;html=1;entryX=0.5;entryY=1;entryDx=0;entryDy=0;" parent="yLwDr2I2qwveIQNhpc3Y-11" source="yLwDr2I2qwveIQNhpc3Y-14" target="yLwDr2I2qwveIQNhpc3Y-13" edge="1">
          <mxGeometry relative="1" as="geometry" />
        </mxCell>
        <mxCell id="yLwDr2I2qwveIQNhpc3Y-14" value="&lt;b&gt;Partial Sort&lt;/b&gt;" style="rounded=1;whiteSpace=wrap;html=1;" parent="yLwDr2I2qwveIQNhpc3Y-11" vertex="1">
          <mxGeometry x="35" y="160" width="120" height="60" as="geometry" />
        </mxCell>
        <mxCell id="yR79EcA6VE_aHLL860Jc-14" value="" style="shape=image;html=1;verticalAlign=top;verticalLabelPosition=bottom;labelBackgroundColor=#ffffff;imageAspect=0;aspect=fixed;image=https://cdn3.iconfinder.com/data/icons/energy-and-power-glyph-24-px/24/Bolt_flashlight_lightning_power_thunder-128.png" parent="yLwDr2I2qwveIQNhpc3Y-11" vertex="1">
          <mxGeometry x="155" y="160" width="60" height="60" as="geometry" />
        </mxCell>
        <mxCell id="yLwDr2I2qwveIQNhpc3Y-19" value="Stage 2" style="swimlane;whiteSpace=wrap;html=1;" parent="1" vertex="1">
          <mxGeometry x="319" y="1340" width="190" height="150" as="geometry" />
        </mxCell>
        <mxCell id="yLwDr2I2qwveIQNhpc3Y-20" value="&lt;b&gt;Table Scan&lt;/b&gt;" style="rounded=1;whiteSpace=wrap;html=1;" parent="yLwDr2I2qwveIQNhpc3Y-19" vertex="1">
          <mxGeometry x="36" y="60" width="120" height="60" as="geometry" />
        </mxCell>
        <mxCell id="yLwDr2I2qwveIQNhpc3Y-24" style="edgeStyle=orthogonalEdgeStyle;rounded=0;orthogonalLoop=1;jettySize=auto;html=1;entryX=0.5;entryY=1;entryDx=0;entryDy=0;" parent="1" source="yLwDr2I2qwveIQNhpc3Y-21" target="yLwDr2I2qwveIQNhpc3Y-20" edge="1">
          <mxGeometry relative="1" as="geometry" />
        </mxCell>
        <mxCell id="R1H4O_8FyF3OMs0MNJZB-1" style="edgeStyle=orthogonalEdgeStyle;rounded=0;orthogonalLoop=1;jettySize=auto;html=1;entryX=0.5;entryY=1;entryDx=0;entryDy=0;" parent="1" source="yLwDr2I2qwveIQNhpc3Y-21" target="yLwDr2I2qwveIQNhpc3Y-20" edge="1">
          <mxGeometry relative="1" as="geometry" />
        </mxCell>
        <mxCell id="yLwDr2I2qwveIQNhpc3Y-21" value="&lt;b&gt;Part&lt;/b&gt;" style="rounded=1;whiteSpace=wrap;html=1;" parent="1" vertex="1">
          <mxGeometry x="355" y="1520" width="120" height="60" as="geometry" />
        </mxCell>
        <mxCell id="yR79EcA6VE_aHLL860Jc-6" value="Stage 0" style="swimlane;whiteSpace=wrap;html=1;" parent="1" vertex="1">
          <mxGeometry x="320" y="810" width="190" height="140" as="geometry" />
        </mxCell>
        <mxCell id="yR79EcA6VE_aHLL860Jc-7" value="&lt;b&gt;Output&lt;/b&gt;" style="rounded=1;whiteSpace=wrap;html=1;" parent="yR79EcA6VE_aHLL860Jc-6" vertex="1">
          <mxGeometry x="35" y="50" width="120" height="60" as="geometry" />
        </mxCell>
        <mxCell id="R1H4O_8FyF3OMs0MNJZB-2" style="edgeStyle=orthogonalEdgeStyle;rounded=0;orthogonalLoop=1;jettySize=auto;html=1;" parent="1" source="yLwDr2I2qwveIQNhpc3Y-20" target="yLwDr2I2qwveIQNhpc3Y-14" edge="1">
          <mxGeometry relative="1" as="geometry" />
        </mxCell>
        <mxCell id="EOs7tAw6jYxM7RjlZ58l-1" value="&lt;b&gt;&lt;font style=&quot;font-size: 18px;&quot;&gt;3.35GB&lt;/font&gt;&lt;/b&gt;" style="edgeLabel;html=1;align=center;verticalAlign=middle;resizable=0;points=[];" vertex="1" connectable="0" parent="R1H4O_8FyF3OMs0MNJZB-2">
          <mxGeometry x="0.2267" y="-3" relative="1" as="geometry">
            <mxPoint as="offset" />
          </mxGeometry>
        </mxCell>
        <mxCell id="R1H4O_8FyF3OMs0MNJZB-3" style="edgeStyle=orthogonalEdgeStyle;rounded=0;orthogonalLoop=1;jettySize=auto;html=1;entryX=0.5;entryY=1;entryDx=0;entryDy=0;" parent="1" source="yLwDr2I2qwveIQNhpc3Y-13" target="yR79EcA6VE_aHLL860Jc-7" edge="1">
          <mxGeometry relative="1" as="geometry" />
        </mxCell>
      </root>
    </mxGraphModel>
  </diagram>
</mxfile>
